# AST/ASF file generated using VICON BodyLanguage
# -----------------------------------------------
:version 1.10
:name VICON
:units
  mass 1.0
  length 0.45
  angle deg
:documentation
   .ast/.asf automatically generated from VICON data using
   VICON BodyBuilder and BodyLanguage model FoxedUp or BRILLIANT.MOD
:root
   order TX TY TZ RX RY RZ
   axis XYZ
   position 0 0 0  
   orientation 0 0 0 
:bonedata
  begin
     id 1 
     name lhipjoint
     direction 0.522423 -0.726805 0.445902 
     length 2.25074 
     axis 0 0 0  XYZ
  end
  begin
     id 2 
     name lfemur
     direction 0.34202 -0.939693 0  
     length 6.54609  
     axis 0 0 20  XYZ
    dof rx ry rz
    limits (-160.0 20.0)
           (-70.0 70.0)
           (-60.0 70.0)
  end
  begin
     id 3 
     name ltibia
     direction 0.34202 -0.939693 0   
     length 7.7528   
     axis 0 0 20   XYZ
    dof rx
    limits (-10.0 170.0)
  end
  begin
     id 4 
     name lfoot
     direction 0.143696 -0.394801 0.90746   
     length 1.73269   
     axis -90 7.62852e-016 20   XYZ
    dof rx rz
    limits (-45.0 90.0)
           (-70.0 20.0)
  end
  begin
     id 5 
     name ltoes
     direction 1.53633e-011 -4.21912e-011 1   
     length 0.858383   
     axis -90 7.62852e-016 20   XYZ
    dof rx
    limits (-90.0 20.0)
  end
  begin
     id 6 
     name rhipjoint
     direction -0.515943 -0.73016 0.447961   
     length 2.2404  
     axis 0 0 0  XYZ 
  end
  begin
     id 7 
     name rfemur
     direction -0.34202 -0.939693 0   
     length 6.84377   
     axis 0 0 -20   XYZ
    dof rx ry rz
    limits (-160.0 20.0)
           (-70.0 70.0)
           (-70.0 60.0)
  end
  begin
     id 8 
     name rtibia
     direction -0.34202 -0.939693 0   
     length 7.57596   
     axis 0 0 -20   XYZ
    dof rx
    limits (-10.0 170.0)
 end
 begin
     id 9 
     name rfoot
     direction -0.0999372 -0.274575 0.956358   
     length 1.78783  
     axis -90 -7.62852e-016 -20   XYZ
    dof rx rz
    limits (-45.0 90.0)
           (-20.0 70.0)
  end
  begin
     id 10 
     name rtoes
     direction -1.53535e-011 -4.21895e-011 1   
     length 0.898614   
     axis -90 -7.62852e-016 -20   XYZ
    dof rx
    limits (-90.0 20.0)
  end
  begin
     id 11 
     name lowerback
     direction -0.011775 0.996164 -0.0867116   
     length 1.91499   
     axis 0 0 0   XYZ
    dof rx ry rz
    limits (-20.0 45.0)
           (-30.0 30.0)
           (-30.0 30.0)
  end
  begin
     id 12 
     name upperback
     direction -0.00189771 0.999673 -0.0254833   
     length 1.92213   
     axis 0 0 0   XYZ
    dof rx ry rz
    limits (-20.0 45.0)
           (-30.0 30.0)
           (-30.0 30.0)
  end
  begin
     id 13 
     name thorax
     direction 0.00335995 0.999878 0.0152401   
     length 1.93138   
     axis 0 0 0   XYZ
    dof rx ry rz
    limits (-20.0 45.0)
           (-30.0 30.0)
           (-30.0 30.0)
  end
  begin
     id 14 
     name lowerneck
     direction 0.00233191 0.998509 0.0545404   
     length 1.59408   
     axis 0 0 0   XYZ
    dof rx ry rz
    limits (-20.0 45.0)
           (-30.0 30.0)
           (-30.0 30.0)
  end
  begin
     id 15 
     name upperneck
     direction 0.07881 0.9956 -0.0506934   
     length 1.59344   
     axis 0 0 0   XYZ
    dof rx ry rz
    limits (-20.0 45.0)
           (-30.0 30.0)
           (-30.0 30.0)
  end
  begin
     id 16
     name head
     direction 0.0261681 0.999378 -0.0236299  
     length 1.60935  
     axis 0 0 0   XYZ
    dof rx ry rz
    limits (-20.0 45.0)
           (-30.0 30.0)
           (-30.0 30.0)
  end
  begin
     id 17 
     name lclavicle
     direction 0.96643 0.252035 0.0499195  
     length 3.82153  
     axis 0 0 0   XYZ
    dof ry rz
    limits (-20.0 10.0)
           (0.0 20.0)
  end
  begin
     id 18 
     name lhumerus
     direction 1 -4.48967e-011 -2.01614e-018   
     length 4.87796   
     axis 180 -30 -90   XYZ
    dof rx ry rz
    limits (-60.0 90.0)
           (-90.0 90.0)
           (-90.0 90.0)
  end
  begin
     id 19
     name lradius
     direction 1 -4.48958e-011 3.1409e-027   
     length 3.23169   
     axis 180 -30 -90   XYZ
    dof rx
    limits (-10.0 170.0)
  end
  begin
     id 20
     name lwrist
     direction 1 -4.48924e-011 1.0365e-027   
     length 1.61584   
     axis -2.56395e-016 90 90   XYZ
    dof ry
    limits (-180.0 0.0)
 end
  begin
     id 21 
     name lhand
     direction 1 -4.49055e-011 2.09488e-027   
     length 0.731324   
     axis -1.32723e-015 90 90   XYZ
    dof rx rz
    limits (-90.0 90.0)
           (-45.0 45.0)
  end
  begin
     id 22 
     name lfingers
     direction 1 -4.48935e-011 4.14981e-027   
     length 0.589612   
     axis -2.6545e-015 90 90   XYZ
    dof rx
    limits (0.0 90.0)
  end
  begin
     id 23
     name lthumb
     direction 0.707107 -6.35097e-011 0.707107   
     length 0.846569   
     axis -90 45 5.05613e-014   XYZ
    dof rx rz
    limits (-45.0 45.0)
           (-45.0 45.0)
  end
  begin
     id 24 
     name rclavicle
     direction -0.979337 0.201016 0.0221522   
     length 3.73827  
     axis 0 0 0   XYZ 
    dof ry rz
    limits (-10.0 20.0)
           (-20.0 0.0)
  end
  begin
     id 25 
     name rhumerus
     direction -1 -4.48971e-011 1.65907e-027  
     length 4.9143   
     axis 180 30 90   XYZ
    dof rx ry rz
    limits (-90.0 60.0)
           (-90.0 90.0)
           (-90.0 90.0)
  end
  begin
     id 26 
     name rradius
     direction -1 -4.4894e-011 2.17871e-028   
     length 3.29093   
     axis 180 30 90   XYZ
    dof rx
    limits (-10.0 170.0)
  end
  begin
     id 27 
     name rwrist
     direction -1 -4.48971e-011 1.04038e-027   
     length 1.64546   
     axis -2.56395e-016 -90 -90   XYZ
    dof ry
    limits (-180.0 0.0)
  end
  begin
     id 28
     name rhand
     direction -1 -4.49017e-011 2.08843e-027   
     length 0.54512   
     axis -1.32723e-015 -90 -90   XYZ
    dof rx rz
    limits (-90.0 90.0)
           (-45.0 45.0)
  end
  begin
     id 29
     name rfingers
     direction -1 -4.48918e-011 4.1439e-027   
     length 0.43949   
     axis -2.6545e-015 -90 -90   XYZ
    dof rx
    limits (0.0 90.0)
  end
  begin
     id 30
     name rthumb
     direction -0.707107 -6.35065e-011 0.707107   
     length 0.631022   
     axis -90 -45 -5.05613e-014   XYZ
    dof rx rz
    limits (-45.0 45.0)
           (-45.0 45.0)
  end
:hierarchy
  begin
    root lhipjoint rhipjoint lowerback
    lhipjoint lfemur
    lfemur ltibia
    ltibia lfoot
    lfoot ltoes
    rhipjoint rfemur
    rfemur rtibia
    rtibia rfoot
    rfoot rtoes
    lowerback upperback
    upperback thorax
    thorax lowerneck lclavicle rclavicle
    lowerneck upperneck
    upperneck head
    lclavicle lhumerus
    lhumerus lradius
    lradius lwrist
    lwrist lhand lthumb
    lhand lfingers
    rclavicle rhumerus
    rhumerus rradius
    rradius rwrist
    rwrist rhand rthumb
    rhand rfingers
  end

#!OML:ASF H:\BreakDance\Project 1\Capture day 1\Session 1\Male.ASF
:FULLY-SPECIFIED
:DEGREES
191
root 9.59978 16.0759 0.264128 6.16753 -75.3733 -0.4542
lowerback -2.7008 0.0074362 2.18281
upperback 3.38736 -0.0410446 -2.00576
thorax 5.02002 0.0897004 -3.31092
lowerneck 2.22063 1.12649 0.731231
upperneck -1.81247 1.55307 1.42199
head -0.925564 0.750986 0.291355
rclavicle 1.68967e-015 1.94809e-014
rhumerus -43.494 1.06331 -88.1657
rradius 37.9024
rwrist 1.26206
rhand -28.8772 -29.7379
rfingers 7.12502
rthumb -2.23312 -59.706
lclavicle 1.68967e-015 1.94809e-014
lhumerus -20.4784 -5.71218 84.8733
lradius 27.4334
lwrist -7.8559
lhand -29.9122 -31.0736
lfingers 7.12502
lthumb -3.23262 -1.11835
rfemur -18.3582 -1.4619 9.57123
rtibia 41.3897
rfoot -29.2118 -25.4863
rtoes 7.71681
lfemur -29.3148 8.56687 -11.1451
ltibia 43.7158
lfoot -26.8796 11.1869
ltoes -29.3251
192
root 9.59914 16.0696 0.302785 6.31195 -75.2231 -0.625566
lowerback -2.67824 0.021001 2.01805
upperback 3.43232 -0.0156789 -1.98731
thorax 5.05534 0.096465 -3.19716
lowerneck 2.26729 1.1927 0.711562
upperneck -2.39365 1.65072 1.46458
head -1.11642 0.794097 0.304582
rclavicle -3.47873e-015 -9.14409e-015
rhumerus -44.0852 1.17088 -88.0231
rradius 36.853
rwrist 1.01462
rhand -28.3454 -28.9558
rfingers 7.12502
rthumb -1.7195 -58.9286
lclavicle -3.47873e-015 -9.14409e-015
lhumerus -20.7948 -5.18146 84.6697
lradius 27.4679
lwrist -6.63633
lhand -29.5279 -30.0606
lfingers 7.12502
lthumb -2.86155 -0.100045
rfemur -18.2699 -1.76656 9.45296
rtibia 41.4049
rfoot -29.017 -25.3581
rtoes 7.41673
lfemur -29.3622 8.92894 -11.2368
ltibia 44.0691
lfoot -27.298 11.9835
ltoes -27.7921
193
root 9.59847 16.063 0.345097 6.48472 -75.0955 -0.848677
lowerback -2.67842 0.0451454 1.88656
upperback 3.4869 0.0222943 -1.97954
thorax 5.11471 0.111277 -3.11268
lowerneck 2.27422 1.25872 0.724874
upperneck -2.88801 1.74791 1.53158
head -1.27448 0.836636 0.32016
rclavicle -1.91827e-014 7.15625e-015
rhumerus -44.6097 1.07217 -87.7642
rradius 35.7719
rwrist 0.918282
rhand -27.6785 -28.0347
rfingers 7.12502
rthumb -1.07541 -58.0117
lclavicle -1.91827e-014 7.15625e-015
lhumerus -21.132 -4.67268 84.4629
lradius 27.5212
lwrist -5.4114
lhand -29.1459 -29.0866
lfingers 7.12502
lthumb -2.49259 0.878545
rfemur -18.1638 -2.10779 9.32884
rtibia 41.4234
rfoot -28.7629 -25.2003
rtoes 7.03245
lfemur -29.3753 9.31252 -11.3202
ltibia 44.4433
lfoot -27.7084 12.9246
ltoes -26.081
194
root 9.59755 16.0557 0.391712 6.61933 -74.9793 -1.04685
lowerback -2.70148 0.0771506 1.78344
upperback 3.53816 0.0699943 -1.98968
thorax 5.18444 0.132381 -3.06228
lowerneck 2.32054 1.30646 0.806649
upperneck -3.36199 1.82245 1.5635
head -1.43277 0.867106 0.313606
rclavicle -2.08724e-015 1.27222e-014
rhumerus -45.0871 0.739599 -87.3562
rradius 34.6646
rwrist 1.00314
rhand -26.8356 -27.0798
rfingers 7.12502
rthumb -0.261325 -57.0594
lclavicle -2.08724e-015 1.27222e-014
lhumerus -21.5106 -4.19883 84.2564
lradius 27.5961
lwrist -4.22485
lhand -28.7954 -28.1197
lfingers 7.12502
lthumb -2.15409 1.84918
rfemur -18.0469 -2.51839 9.17103
rtibia 41.4522
rfoot -28.4329 -25.0057
rtoes 6.52735
lfemur -29.3651 9.72799 -11.4262
ltibia 44.8336
lfoot -28.1049 13.9514
ltoes -24.311
195
root 9.59639 16.0473 0.442648 6.68303 -74.8693 -1.18294
lowerback -2.73437 0.116202 1.70555
upperback 3.5695 0.127083 -2.02572
thorax 5.23974 0.159245 -3.05229
lowerneck 2.38368 1.34906 0.903619
upperneck -3.76294 1.89147 1.62897
head -1.5719 0.893976 0.314911
rclavicle -5.20816e-014 0
rhumerus -45.5529 0.156755 -86.7902
rradius 33.532
rwrist 1.3174
rhand -25.8841 -26.1566
rfingers 7.12502
rthumb 0.657664 -56.1353
lclavicle -5.20816e-014 0
lhumerus -21.9401 -3.77959 84.0451
lradius 27.6634
lwrist -3.09667
lhand -28.5062 -27.1743
lfingers 7.12502
lthumb -1.87476 2.79722
rfemur -17.9256 -3.00371 8.96626
rtibia 41.5009
rfoot -28.0063 -24.7922
rtoes 5.80224
lfemur -29.3394 10.188 -11.5711
ltibia 45.2351
lfoot -28.4695 14.9944
ltoes -22.597
196
root 9.5954 16.0377 0.497395 6.71152 -74.7737 -1.2934
lowerback -2.76582 0.156506 1.64247
upperback 3.57925 0.185779 -2.07209
thorax 5.27178 0.187231 -3.06106
lowerneck 2.4752 1.39022 0.970922
upperneck -4.10482 1.95935 1.73421
head -1.6987 0.9198 0.333446
rclavicle 5.96354e-015 -9.54166e-015
rhumerus -46.0073 -0.628726 -86.0558
rradius 32.375
rwrist 1.84738
rhand -24.892 -25.3203
rfingers 7.12502
rthumb 1.61592 -55.2939
lclavicle 5.96354e-015 -9.54166e-015
lhumerus -22.4258 -3.39697 83.8367
lradius 27.7185
lwrist -2.02431
lhand -28.2727 -26.2825
lfingers 7.12502
lthumb -1.64928 3.6909
rfemur -17.8095 -3.53644 8.72567
rtibia 41.5765
rfoot -27.4627 -24.5849
rtoes 4.75646
lfemur -29.305 10.7037 -11.744
ltibia 45.6448
lfoot -28.771 15.9902
ltoes -20.9463
197
root 9.59508 16.0269 0.555618 6.6954 -74.6972 -1.37145
lowerback -2.78703 0.189534 1.57698
upperback 3.57467 0.234966 -2.11604
thorax 5.28223 0.209967 -3.06641
lowerneck 2.59443 1.42853 1.00875
upperneck -4.40903 2.02326 1.84271
head -1.81938 0.943886 0.357943
rclavicle 2.56432e-014 -1.74931e-014
rhumerus -46.4392 -1.56101 -85.1513
rradius 31.1978
rwrist 2.55329
rhand -23.9474 -24.5801
rfingers 7.12502
rthumb 2.5282 -54.5449
lclavicle 2.56432e-014 -1.74931e-014
lhumerus -22.9572 -3.0133 83.6398
lradius 27.7517
lwrist -1.01861
lhand -28.0596 -25.434
lfingers 7.12502
lthumb -1.44346 4.54082
rfemur -17.7008 -4.10922 8.44624
rtibia 41.6814
rfoot -26.7865 -24.385
rtoes 3.30816
lfemur -29.2649 11.2698 -11.9455
ltibia 46.0602
lfoot -28.9669 16.9097
ltoes -19.4594
198
root 9.59586 16.0148 0.617222 6.65844 -74.6445 -1.44652
lowerback -2.79539 0.213741 1.5084
upperback 3.56993 0.272149 -2.14955
thorax 5.28422 0.226287 -3.05996
lowerneck 2.71031 1.46828 1.0304
upperneck -4.67928 2.08797 1.93795
head -1.92915 0.969045 0.38112
rclavicle 4.29375e-014 1.59028e-015
rhumerus -46.8292 -2.61143 -84.0833
rradius 30.0039
rwrist 3.41865
rhand -23.1374 -23.928
rfingers 7.12502
rthumb 3.31036 -53.882
lclavicle 4.29375e-014 1.59028e-015
lhumerus -23.5074 -2.61292 83.4595
lradius 27.7486
lwrist -0.0966604
lhand -27.843 -24.6071
lfingers 7.12502
lthumb -1.2343 5.36908
rfemur -17.5959 -4.71009 8.13564
rtibia 41.8136
rfoot -25.9853 -24.1741
rtoes 1.49059
lfemur -29.2181 11.8712 -12.1625
ltibia 46.4766
lfoot -29.0437 17.7182
ltoes -18.3331
199
root 9.59789 16.0014 0.682464 6.64979 -74.6124 -1.57122
lowerback -2.79375 0.228565 1.45119
upperback 3.57619 0.295514 -2.16664
thorax 5.29104 0.235989 -3.04385
lowerneck 2.80056 1.51153 1.04875
upperneck -4.92434 2.15579 2.01184
head -2.02644 0.996534 0.398316
rclavicle 4.48259e-014 -2.78299e-014
rhumerus -47.1551 -3.76726 -82.8535
rradius 28.7894
rwrist 4.43828
rhand -22.466 -23.3693
rfingers 7.12502
rthumb 3.95882 -53.3122
lclavicle 4.48259e-014 -2.78299e-014
lhumerus -24.0506 -2.20461 83.3036
lradius 27.7039
lwrist 0.740914
lhand -27.6127 -23.8051
lfingers 7.12502
lthumb -1.01189 6.17229
rfemur -17.4901 -5.32782 7.80655
rtibia 41.9682
rfoot -25.0931 -23.9149
rtoes -0.537933
lfemur -29.1683 12.485 -12.3737
ltibia 46.8871
lfoot -29.0131 18.36
ltoes -17.8693
200
root 9.60123 15.9871 0.751453 6.68319 -74.5994 -1.75859
lowerback -2.77812 0.243433 1.42739
upperback 3.5892 0.317114 -2.1818
thorax 5.29709 0.246115 -3.04474
lowerneck 2.88832 1.54287 1.11091
upperneck -5.16229 2.20823 2.05148
head -2.12026 1.01626 0.397716
rclavicle 4.96962e-016 -2.62396e-014
rhumerus -47.4341 -5.06237 -81.4704
rradius 27.5534
rwrist 5.64267
rhand -21.9528 -22.8823
rfingers 7.12502
rthumb 4.45432 -52.8155
lclavicle 4.96962e-016 -2.62396e-014
lhumerus -24.5853 -1.83727 83.1686
lradius 27.6244
lwrist 1.50021
lhand -27.3632 -23.0206
lfingers 7.12502
lthumb -0.770912 6.95774
rfemur -17.3826 -5.94879 7.46071
rtibia 42.1402
rfoot -24.1601 -23.5627
rtoes -2.54738
lfemur -29.1214 13.0807 -12.5685
ltibia 47.2859
lfoot -28.9092 18.7807
ltoes -18.3703
